<mxfile host="65bd71144e">
    <diagram id="HcarutnLevQoOCCYo0cx" name="Page-1">
        <mxGraphModel dx="1436" dy="465" grid="1" gridSize="10" guides="1" tooltips="1" connect="1" arrows="1" fold="1" page="1" pageScale="1" pageWidth="827" pageHeight="1169" math="0" shadow="0">
            <root>
                <mxCell id="0"/>
                <mxCell id="1" parent="0"/>
                <mxCell id="2" value="&lt;font size=&quot;3&quot;&gt;Start&lt;br&gt;&lt;/font&gt;" style="ellipse;whiteSpace=wrap;html=1;fillColor=#1ba1e2;strokeColor=#006EAF;align=center;fontColor=#ffffff;" vertex="1" parent="1">
                    <mxGeometry x="20" y="10" width="120" height="80" as="geometry"/>
                </mxCell>
                <mxCell id="3" value="&lt;span style=&quot;font-size: 12px&quot;&gt;&lt;b&gt;Open App&lt;/b&gt;&lt;/span&gt;" style="rhombus;whiteSpace=wrap;html=1;fontSize=14;fillColor=#fad9d5;strokeColor=#ae4132;align=center;" vertex="1" parent="1">
                    <mxGeometry x="30" y="180" width="100" height="90" as="geometry"/>
                </mxCell>
                <mxCell id="4" value="" style="endArrow=classic;html=1;fontSize=14;entryX=0.5;entryY=0;entryDx=0;entryDy=0;" edge="1" parent="1" target="3">
                    <mxGeometry width="50" height="50" relative="1" as="geometry">
                        <mxPoint x="80" y="90" as="sourcePoint"/>
                        <mxPoint x="60" y="180" as="targetPoint"/>
                    </mxGeometry>
                </mxCell>
                <mxCell id="5" value="&lt;b&gt;No&lt;/b&gt;" style="text;html=1;align=center;verticalAlign=middle;resizable=0;points=[];autosize=1;strokeColor=none;fillColor=none;fontSize=14;" vertex="1" parent="1">
                    <mxGeometry x="45" y="280" width="30" height="20" as="geometry"/>
                </mxCell>
                <mxCell id="6" value="&lt;b&gt;Yes&lt;/b&gt;" style="text;html=1;align=center;verticalAlign=middle;resizable=0;points=[];autosize=1;strokeColor=none;fillColor=none;fontSize=14;" vertex="1" parent="1">
                    <mxGeometry x="130" y="200" width="40" height="20" as="geometry"/>
                </mxCell>
                <mxCell id="7" value="" style="endArrow=classic;html=1;fontSize=14;exitX=1;exitY=0.5;exitDx=0;exitDy=0;entryX=0;entryY=0.5;entryDx=0;entryDy=0;" edge="1" parent="1" source="3" target="8">
                    <mxGeometry width="50" height="50" relative="1" as="geometry">
                        <mxPoint x="160" y="240" as="sourcePoint"/>
                        <mxPoint x="160" y="225" as="targetPoint"/>
                    </mxGeometry>
                </mxCell>
                <mxCell id="8" value="Menu Drink" style="rounded=0;whiteSpace=wrap;html=1;fontFamily=Verdana;fontSize=14;fillColor=#fa6800;strokeColor=#C73500;fontColor=#000000;" vertex="1" parent="1">
                    <mxGeometry x="190" y="195" width="120" height="60" as="geometry"/>
                </mxCell>
                <mxCell id="9" value="Price 45000" style="rounded=0;whiteSpace=wrap;html=1;fontFamily=Verdana;fontSize=14;fillColor=#fa6800;strokeColor=#C73500;fontColor=#000000;" vertex="1" parent="1">
                    <mxGeometry x="380" y="195" width="120" height="60" as="geometry"/>
                </mxCell>
                <mxCell id="10" value="&lt;b&gt;Yes&lt;/b&gt;" style="text;html=1;align=center;verticalAlign=middle;resizable=0;points=[];autosize=1;strokeColor=none;fillColor=none;fontSize=14;fontFamily=Verdana;" vertex="1" parent="1">
                    <mxGeometry x="330" y="200" width="40" height="20" as="geometry"/>
                </mxCell>
                <mxCell id="11" value="" style="endArrow=classic;html=1;fontSize=14;exitX=1;exitY=0.5;exitDx=0;exitDy=0;" edge="1" parent="1" source="8">
                    <mxGeometry width="50" height="50" relative="1" as="geometry">
                        <mxPoint x="360" y="225" as="sourcePoint"/>
                        <mxPoint x="380" y="225" as="targetPoint"/>
                    </mxGeometry>
                </mxCell>
                <mxCell id="12" value="Price 45000" style="rhombus;whiteSpace=wrap;html=1;fontSize=14;fillColor=#ffcd28;strokeColor=#d79b00;gradientColor=#ffa500;" vertex="1" parent="1">
                    <mxGeometry x="550" y="358.75" width="140" height="121.25" as="geometry"/>
                </mxCell>
                <mxCell id="13" value="&lt;b&gt;Yes&lt;/b&gt;" style="text;html=1;align=center;verticalAlign=middle;resizable=0;points=[];autosize=1;strokeColor=none;fillColor=none;fontSize=14;" vertex="1" parent="1">
                    <mxGeometry x="775" y="335" width="40" height="20" as="geometry"/>
                </mxCell>
                <mxCell id="14" value="&lt;b&gt;No&lt;/b&gt;" style="text;html=1;align=center;verticalAlign=middle;resizable=0;points=[];autosize=1;strokeColor=none;fillColor=none;fontSize=14;" vertex="1" parent="1">
                    <mxGeometry x="390" y="315" width="30" height="20" as="geometry"/>
                </mxCell>
                <mxCell id="15" value="" style="shape=partialRectangle;whiteSpace=wrap;html=1;bottom=1;right=1;left=1;top=0;fillColor=none;routingCenterX=-0.5;fontSize=14;" vertex="1" parent="1">
                    <mxGeometry x="240" y="255" width="550" height="40" as="geometry"/>
                </mxCell>
                <mxCell id="16" value="" style="group" vertex="1" connectable="0" parent="1">
                    <mxGeometry x="392" y="388.75" width="180" height="60" as="geometry"/>
                </mxCell>
                <mxCell id="17" value="&amp;nbsp;Can't get discount" style="rounded=0;whiteSpace=wrap;html=1;fontFamily=Verdana;fontSize=14;fillColor=#fa6800;strokeColor=#C73500;fontColor=#000000;" vertex="1" parent="16">
                    <mxGeometry width="120" height="60" as="geometry"/>
                </mxCell>
                <mxCell id="18" value="" style="line;strokeWidth=2;html=1;fontFamily=Verdana;fontSize=10;" vertex="1" parent="16">
                    <mxGeometry x="120" y="25" width="40" height="10" as="geometry"/>
                </mxCell>
                <mxCell id="19" value="&lt;b&gt;No&lt;/b&gt;" style="text;html=1;align=center;verticalAlign=middle;resizable=0;points=[];autosize=1;strokeColor=none;fillColor=none;fontSize=14;" vertex="1" parent="16">
                    <mxGeometry x="130" y="35" width="30" height="20" as="geometry"/>
                </mxCell>
                <mxCell id="20" value="" style="group" vertex="1" connectable="0" parent="1">
                    <mxGeometry x="690" y="388.75" width="177" height="60" as="geometry"/>
                </mxCell>
                <mxCell id="21" value="Get discount" style="rounded=0;whiteSpace=wrap;html=1;fontFamily=Verdana;fontSize=14;fillColor=#fa6800;strokeColor=#C73500;fontColor=#000000;" vertex="1" parent="20">
                    <mxGeometry x="40" width="120" height="60" as="geometry"/>
                </mxCell>
                <mxCell id="22" value="" style="line;strokeWidth=2;html=1;fontFamily=Verdana;fontSize=10;" vertex="1" parent="20">
                    <mxGeometry y="27.5" width="40" height="5" as="geometry"/>
                </mxCell>
                <mxCell id="23" value="&lt;b&gt;Yes&lt;/b&gt;" style="text;html=1;align=center;verticalAlign=middle;resizable=0;points=[];autosize=1;strokeColor=none;fillColor=none;fontSize=14;fontFamily=Verdana;" vertex="1" parent="20">
                    <mxGeometry y="32.5" width="40" height="20" as="geometry"/>
                </mxCell>
                <mxCell id="24" value="Payment Method" style="rounded=0;whiteSpace=wrap;html=1;fontFamily=Verdana;fontSize=14;fillColor=#fa6800;strokeColor=#C73500;fontColor=#000000;" vertex="1" parent="1">
                    <mxGeometry x="732.5" y="195" width="120" height="60" as="geometry"/>
                </mxCell>
                <mxCell id="25" value="Discount" style="rounded=0;whiteSpace=wrap;html=1;fontFamily=Verdana;fontSize=14;fillColor=#fa6800;strokeColor=#C73500;fontColor=#000000;" vertex="1" parent="1">
                    <mxGeometry x="560" y="195" width="120" height="60" as="geometry"/>
                </mxCell>
                <mxCell id="26" value="" style="endArrow=classic;html=1;fontSize=14;" edge="1" parent="1">
                    <mxGeometry width="50" height="50" relative="1" as="geometry">
                        <mxPoint x="500" y="225" as="sourcePoint"/>
                        <mxPoint x="560" y="224.5" as="targetPoint"/>
                    </mxGeometry>
                </mxCell>
                <mxCell id="27" value="" style="endArrow=classic;html=1;fontSize=14;exitX=1;exitY=0.5;exitDx=0;exitDy=0;" edge="1" parent="1" target="24">
                    <mxGeometry width="50" height="50" relative="1" as="geometry">
                        <mxPoint x="680" y="224.5" as="sourcePoint"/>
                        <mxPoint x="730" y="225" as="targetPoint"/>
                    </mxGeometry>
                </mxCell>
                <mxCell id="28" value="" style="endArrow=none;html=1;fontSize=14;" edge="1" parent="1">
                    <mxGeometry width="50" height="50" relative="1" as="geometry">
                        <mxPoint x="620" y="300" as="sourcePoint"/>
                        <mxPoint x="619.5" y="255" as="targetPoint"/>
                    </mxGeometry>
                </mxCell>
                <mxCell id="29" value="" style="endArrow=none;html=1;fontSize=14;" edge="1" parent="1">
                    <mxGeometry width="50" height="50" relative="1" as="geometry">
                        <mxPoint x="440" y="290" as="sourcePoint"/>
                        <mxPoint x="439.5" y="255" as="targetPoint"/>
                    </mxGeometry>
                </mxCell>
                <mxCell id="30" value="" style="endArrow=none;html=1;fontSize=14;" edge="1" parent="1">
                    <mxGeometry width="50" height="50" relative="1" as="geometry">
                        <mxPoint x="620" y="360" as="sourcePoint"/>
                        <mxPoint x="620" y="295" as="targetPoint"/>
                    </mxGeometry>
                </mxCell>
                <mxCell id="31" value="Result" style="rounded=0;whiteSpace=wrap;html=1;fontFamily=Verdana;fontSize=14;fillColor=#fa6800;strokeColor=#C73500;fontColor=#000000;" vertex="1" parent="1">
                    <mxGeometry x="910" y="197.5" width="120" height="60" as="geometry"/>
                </mxCell>
                <mxCell id="32" value="" style="endArrow=classic;html=1;fontSize=14;exitX=1;exitY=0.5;exitDx=0;exitDy=0;" edge="1" parent="1">
                    <mxGeometry width="50" height="50" relative="1" as="geometry">
                        <mxPoint x="852.5" y="227" as="sourcePoint"/>
                        <mxPoint x="910" y="227" as="targetPoint"/>
                    </mxGeometry>
                </mxCell>
                <mxCell id="33" value="" style="line;strokeWidth=2;html=1;fontFamily=Verdana;fontSize=10;" vertex="1" parent="1">
                    <mxGeometry x="80" y="348.75" width="40" height="10" as="geometry"/>
                </mxCell>
                <mxCell id="34" value="result= Price - Diskon" style="rounded=0;whiteSpace=wrap;html=1;fontFamily=Verdana;fontSize=14;fillColor=#fa6800;strokeColor=#C73500;fontColor=#000000;" vertex="1" parent="1">
                    <mxGeometry x="120" y="328.75" width="130" height="60" as="geometry"/>
                </mxCell>
                <mxCell id="35" value="result= Can't get discount" style="rounded=0;whiteSpace=wrap;html=1;fontFamily=Verdana;fontSize=14;fillColor=#fa6800;strokeColor=#C73500;fontColor=#000000;" vertex="1" parent="1">
                    <mxGeometry x="120" y="438.13" width="130" height="60" as="geometry"/>
                </mxCell>
                <mxCell id="36" value="" style="shape=partialRectangle;whiteSpace=wrap;html=1;bottom=1;right=1;left=1;top=0;fillColor=none;routingCenterX=-0.5;fontSize=14;rotation=-90;" vertex="1" parent="1">
                    <mxGeometry x="214.69" y="382.82" width="130.63" height="60" as="geometry"/>
                </mxCell>
                <mxCell id="37" value="" style="line;strokeWidth=2;html=1;fontFamily=Verdana;fontSize=10;" vertex="1" parent="1">
                    <mxGeometry x="312" y="413.75" width="80" height="10" as="geometry"/>
                </mxCell>
                <mxCell id="38" value="" style="line;strokeWidth=2;html=1;fontFamily=Verdana;fontSize=10;" vertex="1" parent="1">
                    <mxGeometry x="80" y="468.75" width="40" height="10" as="geometry"/>
                </mxCell>
                <mxCell id="40" value="" style="endArrow=classic;html=1;fontSize=14;exitX=0.5;exitY=1;exitDx=0;exitDy=0;entryX=0.567;entryY=0;entryDx=0;entryDy=0;entryPerimeter=0;" edge="1" parent="1">
                    <mxGeometry width="50" height="50" relative="1" as="geometry">
                        <mxPoint x="80" y="270" as="sourcePoint"/>
                        <mxPoint x="82.03999999999996" y="880" as="targetPoint"/>
                    </mxGeometry>
                </mxCell>
                <mxCell id="41" value="End" style="ellipse;whiteSpace=wrap;html=1;fontSize=14;fillColor=#1ba1e2;strokeColor=#006EAF;fontColor=#ffffff;" vertex="1" parent="1">
                    <mxGeometry x="20" y="880" width="120" height="80" as="geometry"/>
                </mxCell>
                <mxCell id="42" value="Payment" style="rhombus;whiteSpace=wrap;html=1;fontSize=14;fillColor=#ffcd28;strokeColor=#d79b00;gradientColor=#ffa500;" vertex="1" parent="1">
                    <mxGeometry x="560" y="535" width="120" height="100" as="geometry"/>
                </mxCell>
                <mxCell id="43" value="Dana" style="rhombus;whiteSpace=wrap;html=1;fontSize=14;fillColor=#ffcd28;strokeColor=#d79b00;gradientColor=#ffa500;" vertex="1" parent="1">
                    <mxGeometry x="415" y="680" width="120" height="100" as="geometry"/>
                </mxCell>
                <mxCell id="44" value="Payement Completed" style="rounded=0;whiteSpace=wrap;html=1;fontFamily=Verdana;fontSize=14;fillColor=#fa6800;strokeColor=#C73500;fontColor=#000000;" vertex="1" parent="1">
                    <mxGeometry x="560" y="800" width="120" height="60" as="geometry"/>
                </mxCell>
                <mxCell id="45" value="Ovo" style="rhombus;whiteSpace=wrap;html=1;fontSize=14;fillColor=#ffcd28;strokeColor=#d79b00;gradientColor=#ffa500;" vertex="1" parent="1">
                    <mxGeometry x="714" y="680" width="120" height="100" as="geometry"/>
                </mxCell>
                <mxCell id="46" value="" style="edgeStyle=orthogonalEdgeStyle;endArrow=classic;html=1;fontSize=14;" edge="1" parent="1" target="45">
                    <mxGeometry width="50" height="50" relative="1" as="geometry">
                        <mxPoint x="620" y="635" as="sourcePoint"/>
                        <mxPoint x="650" y="715" as="targetPoint"/>
                    </mxGeometry>
                </mxCell>
                <mxCell id="47" value="" style="edgeStyle=orthogonalEdgeStyle;endArrow=classic;html=1;fontSize=14;entryX=0.5;entryY=0;entryDx=0;entryDy=0;" edge="1" parent="1" target="43">
                    <mxGeometry width="50" height="50" relative="1" as="geometry">
                        <mxPoint x="620" y="635" as="sourcePoint"/>
                        <mxPoint x="530" y="670" as="targetPoint"/>
                    </mxGeometry>
                </mxCell>
                <mxCell id="48" value="" style="edgeStyle=elbowEdgeStyle;elbow=horizontal;endArrow=classic;html=1;fontSize=14;entryX=1;entryY=0.5;entryDx=0;entryDy=0;" edge="1" parent="1" target="44">
                    <mxGeometry width="50" height="50" relative="1" as="geometry">
                        <mxPoint x="775" y="780" as="sourcePoint"/>
                        <mxPoint x="570" y="950" as="targetPoint"/>
                        <Array as="points">
                            <mxPoint x="775" y="960"/>
                        </Array>
                    </mxGeometry>
                </mxCell>
                <mxCell id="49" value="&lt;b&gt;Yes&lt;/b&gt;" style="text;html=1;align=center;verticalAlign=middle;resizable=0;points=[];autosize=1;strokeColor=none;fillColor=none;fontSize=14;" vertex="1" parent="1">
                    <mxGeometry x="710" y="610" width="40" height="20" as="geometry"/>
                </mxCell>
                <mxCell id="50" value="&lt;b&gt;No&lt;/b&gt;" style="text;html=1;align=center;verticalAlign=middle;resizable=0;points=[];autosize=1;strokeColor=none;fillColor=none;fontSize=14;" vertex="1" parent="1">
                    <mxGeometry x="490" y="610" width="30" height="20" as="geometry"/>
                </mxCell>
                <mxCell id="51" value="" style="edgeStyle=elbowEdgeStyle;elbow=horizontal;endArrow=classic;html=1;fontSize=14;entryX=0;entryY=0.5;entryDx=0;entryDy=0;exitX=0.5;exitY=1;exitDx=0;exitDy=0;" edge="1" parent="1" source="43" target="44">
                    <mxGeometry width="50" height="50" relative="1" as="geometry">
                        <mxPoint x="475" y="780" as="sourcePoint"/>
                        <mxPoint x="595" y="906.25" as="targetPoint"/>
                        <Array as="points">
                            <mxPoint x="480" y="835"/>
                        </Array>
                    </mxGeometry>
                </mxCell>
                <mxCell id="65" value="" style="edgeStyle=elbowEdgeStyle;elbow=horizontal;endArrow=classic;html=1;fontSize=14;entryX=1;entryY=0.5;entryDx=0;entryDy=0;" edge="1" parent="1">
                    <mxGeometry width="50" height="50" relative="1" as="geometry">
                        <mxPoint x="775" y="440" as="sourcePoint"/>
                        <mxPoint x="680" y="585" as="targetPoint"/>
                        <Array as="points">
                            <mxPoint x="775" y="715"/>
                        </Array>
                    </mxGeometry>
                </mxCell>
                <mxCell id="66" value="" style="edgeStyle=elbowEdgeStyle;elbow=horizontal;endArrow=classic;html=1;fontSize=14;entryX=0;entryY=0.5;entryDx=0;entryDy=0;" edge="1" parent="1" target="42">
                    <mxGeometry width="50" height="50" relative="1" as="geometry">
                        <mxPoint x="455" y="448.75" as="sourcePoint"/>
                        <mxPoint x="535" y="548.75" as="targetPoint"/>
                        <Array as="points">
                            <mxPoint x="455" y="553.75"/>
                        </Array>
                    </mxGeometry>
                </mxCell>
            </root>
        </mxGraphModel>
    </diagram>
</mxfile>